<mxfile host="app.diagrams.net" modified="2022-03-28T22:23:50.452Z" agent="5.0 (Macintosh; Intel Mac OS X 10_15_7) AppleWebKit/537.36 (KHTML, like Gecko) Chrome/98.0.4758.102 Safari/537.36" etag="aVp8DPxwP11_yFuHTFjR" version="17.2.4" type="github">
  <diagram id="jNqb4VDj_5StwuI-Fb2b" name="Page-1">
    <mxGraphModel dx="1426" dy="2969" grid="1" gridSize="10" guides="1" tooltips="1" connect="1" arrows="1" fold="1" page="1" pageScale="1" pageWidth="850" pageHeight="1100" math="0" shadow="0">
      <root>
        <mxCell id="0" />
        <mxCell id="1" parent="0" />
        <mxCell id="jGPic2lCmz-j1Cd4sFND-22" style="edgeStyle=orthogonalEdgeStyle;rounded=0;orthogonalLoop=1;jettySize=auto;html=1;" parent="1" source="jGPic2lCmz-j1Cd4sFND-1" target="jGPic2lCmz-j1Cd4sFND-9" edge="1">
          <mxGeometry relative="1" as="geometry" />
        </mxCell>
        <mxCell id="jGPic2lCmz-j1Cd4sFND-58" value="" style="edgeStyle=none;rounded=0;orthogonalLoop=1;jettySize=auto;html=1;endArrow=classic;endFill=1;strokeColor=default;entryX=0.75;entryY=0;entryDx=0;entryDy=0;startArrow=none;startFill=0;" parent="1" source="jGPic2lCmz-j1Cd4sFND-1" target="jGPic2lCmz-j1Cd4sFND-7" edge="1">
          <mxGeometry relative="1" as="geometry">
            <mxPoint x="459.9999999999998" y="-840" as="targetPoint" />
          </mxGeometry>
        </mxCell>
        <mxCell id="jGPic2lCmz-j1Cd4sFND-1" value="API Gateway" style="rounded=1;whiteSpace=wrap;html=1;" parent="1" vertex="1">
          <mxGeometry x="485.01" y="-920" width="190" height="90" as="geometry" />
        </mxCell>
        <mxCell id="jGPic2lCmz-j1Cd4sFND-3" value="&lt;div&gt;&lt;/div&gt;Price Advantage Microservice" style="rounded=1;whiteSpace=wrap;html=1;" parent="1" vertex="1">
          <mxGeometry x="110" y="-765" width="250" height="150" as="geometry" />
        </mxCell>
        <mxCell id="jGPic2lCmz-j1Cd4sFND-4" value="Application Microservice" style="rounded=1;whiteSpace=wrap;html=1;" parent="1" vertex="1">
          <mxGeometry x="400" y="-580" width="400" height="230" as="geometry" />
        </mxCell>
        <mxCell id="jGPic2lCmz-j1Cd4sFND-23" style="edgeStyle=orthogonalEdgeStyle;rounded=0;orthogonalLoop=1;jettySize=auto;html=1;entryX=0;entryY=0.5;entryDx=0;entryDy=0;startArrow=none;" parent="1" source="u49u_VoCSvIHSJ7ixyhX-3" target="jGPic2lCmz-j1Cd4sFND-8" edge="1">
          <mxGeometry relative="1" as="geometry">
            <Array as="points">
              <mxPoint x="745" y="-450" />
              <mxPoint x="745" y="-660" />
            </Array>
          </mxGeometry>
        </mxCell>
        <mxCell id="jGPic2lCmz-j1Cd4sFND-5" value="Storage " style="rounded=1;whiteSpace=wrap;html=1;" parent="1" vertex="1">
          <mxGeometry x="970" y="-740" width="430" height="360" as="geometry" />
        </mxCell>
        <mxCell id="jGPic2lCmz-j1Cd4sFND-7" value="REST API" style="rounded=0;whiteSpace=wrap;html=1;" parent="1" vertex="1">
          <mxGeometry x="340" y="-720" width="50" height="50" as="geometry" />
        </mxCell>
        <mxCell id="jGPic2lCmz-j1Cd4sFND-8" value="&lt;div&gt;REST API&lt;/div&gt;&lt;div&gt;&lt;br&gt;&lt;/div&gt;" style="rounded=0;whiteSpace=wrap;html=1;" parent="1" vertex="1">
          <mxGeometry x="850" y="-700" width="120" height="80" as="geometry" />
        </mxCell>
        <mxCell id="jGPic2lCmz-j1Cd4sFND-61" style="edgeStyle=none;rounded=0;orthogonalLoop=1;jettySize=auto;html=1;startArrow=none;startFill=0;endArrow=none;endFill=0;strokeColor=default;" parent="1" source="jGPic2lCmz-j1Cd4sFND-9" target="jGPic2lCmz-j1Cd4sFND-60" edge="1">
          <mxGeometry relative="1" as="geometry" />
        </mxCell>
        <mxCell id="jGPic2lCmz-j1Cd4sFND-9" value="REST API" style="rounded=0;whiteSpace=wrap;html=1;" parent="1" vertex="1">
          <mxGeometry x="531.26" y="-600" width="97.5" height="50" as="geometry" />
        </mxCell>
        <mxCell id="u49u_VoCSvIHSJ7ixyhX-45" style="edgeStyle=orthogonalEdgeStyle;rounded=0;orthogonalLoop=1;jettySize=auto;html=1;entryX=0.4;entryY=0.53;entryDx=0;entryDy=0;entryPerimeter=0;endArrow=none;endFill=0;" edge="1" parent="1" source="jGPic2lCmz-j1Cd4sFND-17" target="u49u_VoCSvIHSJ7ixyhX-19">
          <mxGeometry relative="1" as="geometry" />
        </mxCell>
        <mxCell id="jGPic2lCmz-j1Cd4sFND-17" value="DB service" style="rounded=0;whiteSpace=wrap;html=1;" parent="1" vertex="1">
          <mxGeometry x="1010" y="-690" width="100" height="20" as="geometry" />
        </mxCell>
        <mxCell id="jGPic2lCmz-j1Cd4sFND-47" value="" style="edgeStyle=orthogonalEdgeStyle;rounded=0;orthogonalLoop=1;jettySize=auto;html=1;endArrow=none;exitX=1;exitY=0.25;exitDx=0;exitDy=0;" parent="1" source="jGPic2lCmz-j1Cd4sFND-8" target="jGPic2lCmz-j1Cd4sFND-17" edge="1">
          <mxGeometry relative="1" as="geometry">
            <mxPoint x="960" y="-660" as="sourcePoint" />
            <mxPoint x="1050" y="-670" as="targetPoint" />
          </mxGeometry>
        </mxCell>
        <mxCell id="jGPic2lCmz-j1Cd4sFND-51" value="POSTGRES TABLE 1 ProductDeliveryInfos" style="shape=cylinder3;whiteSpace=wrap;html=1;boundedLbl=1;backgroundOutline=1;size=15;" parent="1" vertex="1">
          <mxGeometry x="1230" y="-725" width="120" height="85" as="geometry" />
        </mxCell>
        <mxCell id="jGPic2lCmz-j1Cd4sFND-52" value="POSTGRES TABLE 2&lt;br&gt;Asset" style="shape=cylinder3;whiteSpace=wrap;html=1;boundedLbl=1;backgroundOutline=1;size=15;" parent="1" vertex="1">
          <mxGeometry x="1230" y="-615" width="120" height="85" as="geometry" />
        </mxCell>
        <mxCell id="jGPic2lCmz-j1Cd4sFND-53" value="POSTGRES&lt;br&gt;Products" style="shape=cylinder3;whiteSpace=wrap;html=1;boundedLbl=1;backgroundOutline=1;size=15;" parent="1" vertex="1">
          <mxGeometry x="370" y="-460" width="80" height="90" as="geometry" />
        </mxCell>
        <mxCell id="jGPic2lCmz-j1Cd4sFND-62" style="edgeStyle=none;rounded=0;orthogonalLoop=1;jettySize=auto;html=1;startArrow=none;startFill=0;endArrow=none;endFill=0;strokeColor=default;entryX=0.869;entryY=0.46;entryDx=0;entryDy=0;entryPerimeter=0;" parent="1" source="jGPic2lCmz-j1Cd4sFND-60" target="u49u_VoCSvIHSJ7ixyhX-21" edge="1">
          <mxGeometry relative="1" as="geometry">
            <mxPoint x="470" y="-430" as="targetPoint" />
          </mxGeometry>
        </mxCell>
        <mxCell id="jGPic2lCmz-j1Cd4sFND-60" value="Product Service" style="rounded=0;whiteSpace=wrap;html=1;" parent="1" vertex="1">
          <mxGeometry x="538.13" y="-440" width="91.87" height="20" as="geometry" />
        </mxCell>
        <mxCell id="jGPic2lCmz-j1Cd4sFND-64" value="" style="edgeStyle=none;rounded=0;orthogonalLoop=1;jettySize=auto;html=1;startArrow=none;startFill=0;endArrow=none;endFill=0;strokeColor=default;" parent="1" source="jGPic2lCmz-j1Cd4sFND-63" target="jGPic2lCmz-j1Cd4sFND-60" edge="1">
          <mxGeometry relative="1" as="geometry" />
        </mxCell>
        <mxCell id="jGPic2lCmz-j1Cd4sFND-65" style="edgeStyle=none;rounded=0;orthogonalLoop=1;jettySize=auto;html=1;startArrow=none;startFill=0;endArrow=classic;endFill=1;strokeColor=default;" parent="1" source="jGPic2lCmz-j1Cd4sFND-63" target="jGPic2lCmz-j1Cd4sFND-7" edge="1">
          <mxGeometry relative="1" as="geometry">
            <Array as="points" />
          </mxGeometry>
        </mxCell>
        <mxCell id="jGPic2lCmz-j1Cd4sFND-63" value="Calculator&amp;nbsp; API Service" style="rounded=0;whiteSpace=wrap;html=1;" parent="1" vertex="1">
          <mxGeometry x="376.25" y="-530" width="103.75" height="30" as="geometry" />
        </mxCell>
        <mxCell id="u49u_VoCSvIHSJ7ixyhX-3" value="Storage API Service" style="rounded=0;whiteSpace=wrap;html=1;" vertex="1" parent="1">
          <mxGeometry x="673.75" y="-445" width="103.75" height="30" as="geometry" />
        </mxCell>
        <mxCell id="u49u_VoCSvIHSJ7ixyhX-4" value="" style="edgeStyle=orthogonalEdgeStyle;rounded=0;orthogonalLoop=1;jettySize=auto;html=1;entryX=0;entryY=0.5;entryDx=0;entryDy=0;endArrow=none;" edge="1" parent="1" source="jGPic2lCmz-j1Cd4sFND-60" target="u49u_VoCSvIHSJ7ixyhX-3">
          <mxGeometry relative="1" as="geometry">
            <Array as="points" />
            <mxPoint x="631.8800000000001" y="-450" as="sourcePoint" />
            <mxPoint x="850" y="-660" as="targetPoint" />
          </mxGeometry>
        </mxCell>
        <mxCell id="u49u_VoCSvIHSJ7ixyhX-13" style="edgeStyle=orthogonalEdgeStyle;rounded=0;orthogonalLoop=1;jettySize=auto;html=1;" edge="1" parent="1" target="u49u_VoCSvIHSJ7ixyhX-10">
          <mxGeometry relative="1" as="geometry">
            <mxPoint x="580" y="-1070" as="sourcePoint" />
          </mxGeometry>
        </mxCell>
        <mxCell id="u49u_VoCSvIHSJ7ixyhX-5" value="Actor" style="shape=umlActor;verticalLabelPosition=bottom;verticalAlign=top;html=1;outlineConnect=0;" vertex="1" parent="1">
          <mxGeometry x="565.01" y="-1160" width="30" height="70" as="geometry" />
        </mxCell>
        <mxCell id="u49u_VoCSvIHSJ7ixyhX-14" style="edgeStyle=orthogonalEdgeStyle;rounded=0;orthogonalLoop=1;jettySize=auto;html=1;" edge="1" parent="1" source="u49u_VoCSvIHSJ7ixyhX-10" target="jGPic2lCmz-j1Cd4sFND-1">
          <mxGeometry relative="1" as="geometry" />
        </mxCell>
        <mxCell id="u49u_VoCSvIHSJ7ixyhX-10" value="POSTMAN" style="rounded=0;whiteSpace=wrap;html=1;" vertex="1" parent="1">
          <mxGeometry x="538.13" y="-1000" width="83.75" height="40" as="geometry" />
        </mxCell>
        <mxCell id="u49u_VoCSvIHSJ7ixyhX-20" style="edgeStyle=orthogonalEdgeStyle;rounded=0;orthogonalLoop=1;jettySize=auto;html=1;entryX=0;entryY=0.5;entryDx=0;entryDy=0;entryPerimeter=0;" edge="1" parent="1" source="u49u_VoCSvIHSJ7ixyhX-19" target="jGPic2lCmz-j1Cd4sFND-51">
          <mxGeometry relative="1" as="geometry" />
        </mxCell>
        <mxCell id="u49u_VoCSvIHSJ7ixyhX-19" value="REDIS" style="shape=cylinder3;whiteSpace=wrap;html=1;boundedLbl=1;backgroundOutline=1;size=15;" vertex="1" parent="1">
          <mxGeometry x="1160" y="-707.5" width="40" height="50" as="geometry" />
        </mxCell>
        <mxCell id="u49u_VoCSvIHSJ7ixyhX-22" style="edgeStyle=orthogonalEdgeStyle;rounded=0;orthogonalLoop=1;jettySize=auto;html=1;" edge="1" parent="1" source="u49u_VoCSvIHSJ7ixyhX-21" target="jGPic2lCmz-j1Cd4sFND-53">
          <mxGeometry relative="1" as="geometry" />
        </mxCell>
        <mxCell id="u49u_VoCSvIHSJ7ixyhX-21" value="REDIS" style="shape=cylinder3;whiteSpace=wrap;html=1;boundedLbl=1;backgroundOutline=1;size=15;" vertex="1" parent="1">
          <mxGeometry x="480" y="-440" width="43.75" height="50" as="geometry" />
        </mxCell>
        <mxCell id="u49u_VoCSvIHSJ7ixyhX-26" style="edgeStyle=orthogonalEdgeStyle;rounded=0;orthogonalLoop=1;jettySize=auto;html=1;endArrow=none;endFill=0;" edge="1" parent="1" source="u49u_VoCSvIHSJ7ixyhX-25" target="jGPic2lCmz-j1Cd4sFND-8">
          <mxGeometry relative="1" as="geometry" />
        </mxCell>
        <mxCell id="u49u_VoCSvIHSJ7ixyhX-27" style="edgeStyle=orthogonalEdgeStyle;rounded=0;orthogonalLoop=1;jettySize=auto;html=1;endArrow=none;endFill=0;" edge="1" parent="1" source="u49u_VoCSvIHSJ7ixyhX-25" target="jGPic2lCmz-j1Cd4sFND-52">
          <mxGeometry relative="1" as="geometry" />
        </mxCell>
        <mxCell id="u49u_VoCSvIHSJ7ixyhX-25" value="CSVconverter service" style="rounded=0;whiteSpace=wrap;html=1;" vertex="1" parent="1">
          <mxGeometry x="1040" y="-595" width="100" height="45" as="geometry" />
        </mxCell>
        <mxCell id="u49u_VoCSvIHSJ7ixyhX-36" style="edgeStyle=orthogonalEdgeStyle;rounded=0;orthogonalLoop=1;jettySize=auto;html=1;endArrow=none;endFill=0;" edge="1" parent="1" source="u49u_VoCSvIHSJ7ixyhX-29" target="jGPic2lCmz-j1Cd4sFND-52">
          <mxGeometry relative="1" as="geometry">
            <Array as="points">
              <mxPoint x="1290" y="-500" />
              <mxPoint x="1290" y="-500" />
            </Array>
          </mxGeometry>
        </mxCell>
        <mxCell id="u49u_VoCSvIHSJ7ixyhX-39" style="edgeStyle=orthogonalEdgeStyle;rounded=0;orthogonalLoop=1;jettySize=auto;html=1;endArrow=none;endFill=0;" edge="1" parent="1" source="u49u_VoCSvIHSJ7ixyhX-29" target="u49u_VoCSvIHSJ7ixyhX-31">
          <mxGeometry relative="1" as="geometry" />
        </mxCell>
        <mxCell id="u49u_VoCSvIHSJ7ixyhX-29" value="&lt;div&gt;data loader service&lt;/div&gt;" style="rounded=0;whiteSpace=wrap;html=1;" vertex="1" parent="1">
          <mxGeometry x="1230" y="-430" width="70" height="40" as="geometry" />
        </mxCell>
        <mxCell id="u49u_VoCSvIHSJ7ixyhX-31" value="AWS API" style="rounded=1;whiteSpace=wrap;html=1;" vertex="1" parent="1">
          <mxGeometry x="1205" y="-330" width="120" height="60" as="geometry" />
        </mxCell>
        <mxCell id="u49u_VoCSvIHSJ7ixyhX-42" style="edgeStyle=orthogonalEdgeStyle;rounded=0;orthogonalLoop=1;jettySize=auto;html=1;endArrow=none;endFill=0;" edge="1" parent="1" source="u49u_VoCSvIHSJ7ixyhX-40" target="jGPic2lCmz-j1Cd4sFND-51">
          <mxGeometry relative="1" as="geometry">
            <Array as="points">
              <mxPoint x="1425" y="-682" />
            </Array>
          </mxGeometry>
        </mxCell>
        <mxCell id="u49u_VoCSvIHSJ7ixyhX-46" style="edgeStyle=orthogonalEdgeStyle;rounded=0;orthogonalLoop=1;jettySize=auto;html=1;endArrow=none;endFill=0;" edge="1" parent="1" source="u49u_VoCSvIHSJ7ixyhX-40" target="u49u_VoCSvIHSJ7ixyhX-29">
          <mxGeometry relative="1" as="geometry" />
        </mxCell>
        <mxCell id="u49u_VoCSvIHSJ7ixyhX-40" value="data converter" style="rounded=0;whiteSpace=wrap;html=1;" vertex="1" parent="1">
          <mxGeometry x="1370" y="-430" width="70" height="40" as="geometry" />
        </mxCell>
      </root>
    </mxGraphModel>
  </diagram>
</mxfile>
